<?xml version="1.0" encoding="UTF-8"?>
<svg version="1.1" xmlns="http://www.w3.org/2000/svg" width="512" height="512">
<path d="M0 0 C0.8494519 -0.00974854 1.69890381 -0.01949707 2.57409668 -0.02954102 C21.69269555 -0.20373444 40.09401832 0.07726441 58.84765625 4.23828125 C59.69150879 4.4202002 60.53536133 4.60211914 61.40478516 4.78955078 C95.3095385 12.31273519 127.80303899 28.17520267 153.84765625 51.23828125 C154.63398438 51.91632812 155.4203125 52.594375 156.23046875 53.29296875 C168.33496232 63.91845667 179.33293796 75.23633603 188.84765625 88.23828125 C189.6159375 89.285 190.38421875 90.33171875 191.17578125 91.41015625 C220.62960895 132.81029168 239.0342348 188.42424111 230.72265625 239.55078125 C223.76773406 277.38744232 204.48501161 311.94944185 182.84765625 343.23828125 C182.37328125 343.92519043 181.89890625 344.61209961 181.41015625 345.31982422 C172.37635329 358.35590773 162.83058503 370.91221928 152.84765625 383.23828125 C152.16316406 384.08648437 151.47867187 384.9346875 150.7734375 385.80859375 C142.40464438 396.11558132 133.77053982 406.19233185 124.84765625 416.0234375 C123.05162096 418.01240627 121.28812322 420.02391319 119.53515625 422.05078125 C112.34827384 430.28818244 104.93363586 438.34067624 97.078125 445.9453125 C95.19427798 447.88194683 93.43634593 449.85570325 91.67578125 451.90234375 C87.46544839 456.74942969 82.9591998 461.27341701 78.41015625 465.80078125 C77.60255859 466.61224609 76.79496094 467.42371094 75.96289062 468.25976562 C71.66056256 472.55516004 67.27644286 476.67275847 62.66772461 480.63647461 C59.93074788 483.04523441 57.39184134 485.62924862 54.84765625 488.23828125 C50.34767956 492.78768496 45.778729 497.15253526 40.84765625 501.23828125 C40.15414062 501.84414063 39.460625 502.45 38.74609375 503.07421875 C28.44252588 511.70300174 18.00276502 513.36899139 4.91845703 512.46142578 C-7.86035382 511.08441174 -16.78453795 501.83909471 -25.65234375 493.36328125 C-26.39282959 492.66146729 -27.13331543 491.95965332 -27.89624023 491.23657227 C-32.34202574 487.00972838 -36.73701008 482.74036621 -41 478.328125 C-42.87354054 476.50898854 -44.79012671 474.81434366 -46.76953125 473.11328125 C-51.80951137 468.73324994 -56.50578165 464.03113527 -61.21484375 459.30078125 C-62.50358398 458.0178418 -62.50358398 458.0178418 -63.81835938 456.70898438 C-68.25859847 452.26196111 -72.53584489 447.74482606 -76.63061523 442.97827148 C-78.69592002 440.61673976 -80.90529857 438.42619366 -83.15234375 436.23828125 C-86.67989022 432.74786685 -90.02618849 429.19183811 -93.25 425.421875 C-95.15915099 423.2304676 -97.12225691 421.09516397 -99.09936523 418.96508789 C-103.83611702 413.85904925 -108.34371394 408.64066983 -112.7109375 403.2109375 C-115.59804619 399.69559396 -118.59077817 396.28297131 -121.58984375 392.86328125 C-126.9412086 386.73310101 -132.00257786 380.4495034 -136.87792969 373.93359375 C-138.21021461 372.16129748 -139.55889395 370.40239297 -140.91015625 368.64453125 C-181.09627864 316.10283765 -215.31356916 257.85454273 -206.63085938 189.62255859 C-199.9326642 142.44749455 -179.04712527 100.46579732 -146.15234375 66.23828125 C-145.63414062 65.69284668 -145.1159375 65.14741211 -144.58203125 64.58544922 C-136.69330889 56.31054864 -128.41834159 48.93983626 -119.15234375 42.23828125 C-118.16137695 41.52140137 -118.16137695 41.52140137 -117.15039062 40.79003906 C-83.52763777 16.79863921 -41.70824645 0.39995666 0 0 Z M-136.10229492 78.88354492 C-141.98266443 84.93654914 -147.17007678 91.43643784 -152.15234375 98.23828125 C-152.93222656 99.29660156 -153.71210938 100.35492188 -154.515625 101.4453125 C-181.69965767 139.52173822 -198.61680368 190.62738292 -190.96484375 237.61328125 C-189.42848454 246.06140139 -187.06401989 254.16931038 -184.15234375 262.23828125 C-183.88856934 262.9770752 -183.62479492 263.71586914 -183.35302734 264.47705078 C-175.38734521 286.41373868 -164.09656828 306.87064024 -151.15234375 326.23828125 C-150.70181641 326.91616699 -150.25128906 327.59405273 -149.78710938 328.29248047 C-138.62714085 345.01206835 -126.58810762 361.02431224 -113.66992188 376.42089844 C-111.61640479 378.88009747 -109.60376118 381.37160969 -107.58984375 383.86328125 C-98.63619095 394.80663467 -89.23947525 405.34180135 -79.59765625 415.6796875 C-78.15805147 417.23212617 -76.73120445 418.79526559 -75.30859375 420.36328125 C-70.15050931 426.04617603 -64.86865677 431.55910517 -59.40625 436.953125 C-57.45825309 438.92813053 -55.63489189 440.9381816 -53.83984375 443.05078125 C-47.01958773 451.00235936 -39.43129088 458.40206644 -31.44140625 465.16796875 C-28.05281719 468.2327336 -24.86694657 471.49275374 -21.65234375 474.73828125 C-16.65139254 479.78280972 -11.64374031 484.72160758 -6.15234375 489.23828125 C-5.28609375 489.98078125 -4.41984375 490.72328125 -3.52734375 491.48828125 C3.65179479 496.7781728 10.14856097 497.25594819 18.84765625 496.23828125 C25.15180946 494.21495719 29.44152894 489.97173316 33.91015625 485.25 C35.66891793 483.4238664 37.46930922 481.80291378 39.41015625 480.17578125 C43.60720851 476.5771206 47.46028727 472.66369176 51.34765625 468.73828125 C59.20902523 460.80035603 59.20902523 460.80035603 62.97265625 457.61328125 C70.91645555 450.88625646 78.25094451 443.26133524 84.9765625 435.328125 C87.49150615 432.51915871 90.16620051 429.88741057 92.84765625 427.23828125 C96.70963818 423.41819401 100.42743737 419.5582093 103.94921875 415.41796875 C105.96742758 413.10076602 108.05084752 410.85644681 110.1484375 408.61132812 C115.14868063 403.25746979 119.93259653 397.81091864 124.51953125 392.09375 C126.6618566 389.4661664 128.85919376 386.90412607 131.08642578 384.34912109 C137.75048768 376.69460089 143.94140175 368.73508553 150.03564453 360.62255859 C151.38510159 358.84691893 152.75067725 357.0835066 154.12451172 355.32666016 C160.35405407 347.3599597 166.13705407 339.16734205 171.72265625 330.73828125 C172.15519714 330.08731476 172.58773804 329.43634827 173.03338623 328.76565552 C203.85601477 282.28653754 223.34335472 235.53395692 212.24560547 179.18115234 C206.39794749 151.76505398 195.58065793 124.89066495 178.84765625 102.23828125 C178.09226562 101.20058594 177.336875 100.16289063 176.55859375 99.09375 C170.94669505 91.51983043 164.7939523 84.53379654 158.27636719 77.72998047 C156.96100407 76.35662629 155.65764775 74.97179885 154.35546875 73.5859375 C143.59552526 62.42029122 130.96011964 53.43146357 117.84765625 45.23828125 C116.94055908 44.67028809 116.94055908 44.67028809 116.01513672 44.09082031 C35.38783443 -5.58231863 -68.38487526 12.16925521 -136.10229492 78.88354492 Z " fill="#000000" transform="translate(244.15234375,-0.23828125)"/>
<path d="M0 0 C0.82145508 0.19335938 1.64291016 0.38671875 2.48925781 0.5859375 C32.44362915 7.842174 57.81171196 22.81869217 80 44 C80.88365234 44.81210938 80.88365234 44.81210938 81.78515625 45.640625 C83.82337147 47.92132885 83.8805539 50.01384742 84 53 C81.86956522 57.56521739 81.86956522 57.56521739 79 59 C75.61287251 59.5419404 73.12485041 59.74990027 70.18359375 57.7890625 C68.07070895 55.90996245 66.03923625 53.95878611 64 52 C30.81166054 22.62807804 -8.31551407 12.46221497 -52 14 C-57.82525755 14.4159463 -63.3558751 15.50280419 -69 17 C-70.11713379 17.27408691 -70.11713379 17.27408691 -71.25683594 17.55371094 C-98.50429645 24.32941672 -122.26637383 38.15835535 -142 58 C-142.87011719 58.87011719 -143.74023438 59.74023438 -144.63671875 60.63671875 C-171.34277924 88.68437098 -185.06028266 127.51488106 -184.25390625 165.99609375 C-183.64518837 181.45875143 -181.01288114 197.67598094 -175 212 C-174.10539062 211.2265625 -173.21078125 210.453125 -172.2890625 209.65625 C-166.12887153 204.34467858 -159.94269528 199.10088084 -153.55859375 194.05859375 C-150.49269334 191.59183113 -147.49698739 189.04961101 -144.5 186.5 C-143.39200106 185.56631846 -142.2839291 184.63272355 -141.17578125 183.69921875 C-139.16356706 182.00067502 -137.1930401 180.27726441 -135.23046875 178.51953125 C-128.31515601 172.51776213 -128.31515601 172.51776213 -123.625 172.25 C-120 173 -120 173 -117.5 174.5625 C-115.40688385 177.96381375 -115.44852315 180.07072743 -116 184 C-118.43930092 187.4715218 -121.08148771 190.05564152 -124.4375 192.625 C-128.45820797 195.76268279 -132.3773975 198.99496468 -136.25 202.3125 C-141.35939228 206.6722722 -146.57985041 210.86371251 -151.87841797 214.99072266 C-157.3271435 219.23750084 -162.67503003 223.59874931 -168 228 C-152.9641228 261.47182713 -122.67179389 286.6315814 -89 300 C-82.43997607 302.392948 -75.77181837 304.30807456 -69 306 C-68.28859863 306.17934082 -67.57719727 306.35868164 -66.84423828 306.54345703 C-47.64985535 311.12698646 -25.98114796 310.81060355 -6.76171875 306.65625 C-2.51746542 305.91581951 1.70535856 305.44164834 6 306 C8.625 308.0625 8.625 308.0625 10 311 C9.94133191 314.40274928 9.87429965 316.85004537 7.7734375 319.61328125 C-2.45813784 327.61374214 -23.43086298 326.3810107 -35.6875 326.3125 C-36.38654449 326.31034485 -37.08558899 326.3081897 -37.80581665 326.30596924 C-49.09456075 326.25033828 -59.99043067 325.63599318 -71 323 C-71.81903809 322.80664062 -72.63807617 322.61328125 -73.48193359 322.4140625 C-98.71967773 316.25318166 -122.50328269 305.37886303 -142 288 C-143.27230469 286.89011719 -143.27230469 286.89011719 -144.5703125 285.7578125 C-147.08069734 283.53915434 -149.54867235 281.28364726 -152 279 C-153.12535156 277.95585938 -153.12535156 277.95585938 -154.2734375 276.890625 C-184.40168661 247.92522059 -200.18114923 205.43616693 -201.2878418 164.1887207 C-201.76789697 119.14433616 -184.34298838 77.06455358 -153 45 C-152.36191406 44.30003906 -151.72382813 43.60007813 -151.06640625 42.87890625 C-114.55394551 3.76422114 -51.43312717 -12.46863689 0 0 Z " fill="#000000" transform="translate(292,58)"/>
<path d="M0 0 C22.17373087 22.9734392 29.46029256 63.65128579 29.30029297 94.47680664 C28.35049848 136.77688805 12.30963465 176.47545822 -17 207 C-18.25876953 208.33611328 -18.25876953 208.33611328 -19.54296875 209.69921875 C-29.79931804 220.31076628 -41.18104107 228.67711116 -54 236 C-55.06863281 236.61488281 -56.13726562 237.22976563 -57.23828125 237.86328125 C-65.78415614 242.49274025 -65.78415614 242.49274025 -70.0625 242.125 C-73.37703776 240.85560256 -74.52139663 240.21813674 -76 237 C-76.5 234.0625 -76.5 234.0625 -76 231 C-72.613187 227.08496845 -69.1050331 224.73343383 -64.5625 222.3125 C-47.16093428 212.69796786 -33.01679696 199.92671073 -20 185 C-21.31693041 181.04920878 -23.85383566 179.53755561 -27.0625 177.125 C-28.34608587 176.13936567 -29.62859656 175.15232992 -30.91015625 174.1640625 C-31.58191895 173.6474707 -32.25368164 173.13087891 -32.94580078 172.59863281 C-36.34278054 169.95501224 -39.66931174 167.2263246 -43 164.5 C-47.96171439 160.44945087 -52.95155709 156.44193488 -58 152.5 C-63.74010668 148.0179989 -69.39693246 143.44043443 -75.0390625 138.8359375 C-79.32451618 135.34469917 -83.64329453 131.90181112 -88 128.5 C-93.74010668 124.0179989 -99.39693246 119.44043443 -105.0390625 114.8359375 C-109.32451618 111.34469917 -113.64329453 107.90181112 -118 104.5 C-123.04846325 100.55804924 -128.03756169 96.54968287 -133 92.5 C-140.2622323 86.57499097 -147.59415239 80.74453585 -155 75 C-155.68578125 74.38382812 -156.3715625 73.76765625 -157.078125 73.1328125 C-158.9609724 71.81268158 -158.9609724 71.81268158 -161.31640625 71.9453125 C-165.23024797 73.48350357 -167.86626262 76.05303059 -170.9375 78.875 C-172.2619383 80.05866322 -173.58882054 81.23959679 -174.91796875 82.41796875 C-175.92802979 83.31394775 -175.92802979 83.31394775 -176.95849609 84.22802734 C-180.13885882 86.98850003 -183.42955074 89.5984369 -186.75 92.1875 C-187.33386475 92.64431152 -187.91772949 93.10112305 -188.51928711 93.57177734 C-196.40159525 99.69456892 -196.40159525 99.69456892 -203 99 C-205.4375 97.4375 -205.4375 97.4375 -207 95 C-207.57426106 91.05195522 -207.62991087 88.92757758 -205.36328125 85.58984375 C-202.71359076 82.68613334 -199.81775067 80.34889312 -196.6875 78 C-190.59924492 73.33907274 -184.78477428 68.43182679 -179.06323242 63.328125 C-173.35854 58.28709536 -168.53165813 54.95341997 -160.75 54.6875 C-159.69039062 54.63142578 -159.69039062 54.63142578 -158.609375 54.57421875 C-151.39690714 55.75110348 -145.79951324 60.46582412 -140.375 65.0625 C-138.96697882 66.23147281 -137.55810966 67.3994249 -136.1484375 68.56640625 C-135.45073242 69.14664551 -134.75302734 69.72688477 -134.03417969 70.32470703 C-131.06443671 72.77050352 -128.03666535 75.13819771 -125 77.5 C-119.90277889 81.47545295 -114.87792701 85.53164214 -109.875 89.625 C-103.38000151 94.93516378 -96.76663972 100.04036066 -90 105 C-86.05428503 103.34165603 -83.06604219 100.65267531 -79.875 97.875 C-78.70527906 96.87140198 -77.53469922 95.8688042 -76.36328125 94.8671875 C-75.78916504 94.37573242 -75.21504883 93.88427734 -74.62353516 93.37792969 C-71.69010053 90.88825976 -68.68816179 88.49035607 -65.66015625 86.1171875 C-63.61223185 84.48726823 -61.61324807 82.82861788 -59.62109375 81.1328125 C-47.34907821 70.83859427 -47.34907821 70.83859427 -39 71 C-26.71573317 72.16993017 -16.44859835 83.85737076 -7.328125 91.43359375 C-1.31599079 96.4126456 4.83496646 101.212573 11 106 C17.9560391 80.81746567 7.58384289 47.42071756 -4 25 C-6.06959152 21.36500764 -8.24245317 17.80496886 -10.49609375 14.28125 C-12.42570635 10.07118614 -12.43019114 7.59348536 -12 3 C-8.3933623 -1.48097411 -5.34982258 -1.71958583 0 0 Z M-40 87 C-45.56994905 91.04094343 -50.83412817 95.34882852 -56.0612793 99.81616211 C-59.48859357 102.73970848 -62.96109621 105.58613254 -66.5 108.375 C-69.90802729 111.07255906 -73.02836559 113.83025663 -76 117 C-70.42663161 122.14578193 -64.63382369 126.92490275 -58.65014648 131.57714844 C-54.02686268 135.17651646 -49.47285972 138.85313621 -44.9375 142.5625 C-39.12045698 147.31202968 -33.23218977 151.94536213 -27.26171875 156.5 C-21.45630996 160.93341691 -15.73557782 165.47689065 -10 170 C-5.83553951 166.46680388 -3.88657626 162.29248762 -1.625 157.4375 C-1.23650879 156.60919678 -0.84801758 155.78089355 -0.44775391 154.92749023 C2.29113131 148.92309814 4.60730232 142.84473798 6.625 136.5625 C7.01437744 135.36548462 7.01437744 135.36548462 7.41162109 134.14428711 C8.97724751 129.05488582 8.97724751 129.05488582 8 124 C6.01612527 122.2130211 4.07673359 120.64096362 1.9375 119.0625 C0.65382554 118.08610927 -0.62868162 117.10818239 -1.91015625 116.12890625 C-2.58191895 115.61859863 -3.25368164 115.10829102 -3.94580078 114.58251953 C-7.35343346 111.95733828 -10.67317579 109.22633345 -14 106.5 C-19.22574076 102.24015445 -24.46573049 97.99961186 -29.75 93.8125 C-30.60851562 93.12607422 -30.60851562 93.12607422 -31.484375 92.42578125 C-34.20552486 90.28025924 -36.81280364 88.38472851 -40 87 Z " fill="#000000" transform="translate(392,127)"/>
<path d="M0 0 C6.69339021 4.8182475 11.52259524 10.5976572 13.73046875 18.640625 C14.81762111 28.6641698 14.15452947 36.66332262 8.1171875 44.8203125 C2.51378071 51.6040378 -3.61732122 56.06468891 -12.56640625 56.9765625 C-22.59775344 57.09003928 -31.10094593 55.62443273 -38.66796875 48.61328125 C-44.76801595 41.09980848 -47.9001041 32.25686092 -47.26953125 22.640625 C-45.12106546 12.68817317 -40.71027115 5.47009921 -32.26953125 -0.359375 C-21.62888024 -5.71108885 -10.44170293 -6.25423859 0 0 Z M-28.08203125 17.328125 C-30.65979041 21.23158887 -31.69747554 23.97690556 -31.26953125 28.640625 C-30.00916353 33.17135862 -27.99535551 36.55086791 -24.01953125 39.140625 C-19.91842101 41.10775282 -16.77589404 41.21286155 -12.26953125 40.640625 C-7.4727418 38.24223027 -4.63269413 35.45784165 -2.26953125 30.640625 C-1.45012414 25.98338255 -1.81076331 22.61321304 -3.83203125 18.328125 C-7.45235819 14.33648248 -10.84645255 11.9867791 -16.33203125 11.203125 C-21.40219339 11.95825553 -24.3924472 13.80252246 -28.08203125 17.328125 Z " fill="#000000" transform="translate(319.26953125,126.359375)"/>
</svg>
